<svg width="374" height="72" viewBox="0 0 374 72" fill="none" xmlns="http://www.w3.org/2000/svg">
<path d="M243.43 62.89H231.17L239.84 15.72H257.19C258.903 15.6981 260.608 15.9513 262.24 16.47C263.681 16.9187 265.011 17.6686 266.14 18.67C267.261 19.6964 268.121 20.975 268.65 22.4C269.267 24.1044 269.565 25.9077 269.53 27.72C269.53 34.58 266.593 39.46 260.72 42.36L264.24 62.89H251.64L249.33 45H246.69L243.43 62.89ZM250.21 26L248.59 34.81H251.16C251.804 34.8013 252.444 34.7003 253.06 34.51C253.747 34.2905 254.39 33.952 254.96 33.51C255.569 33.0514 256.065 32.4597 256.41 31.78C256.826 30.939 257.025 30.0075 256.99 29.07C257.02 28.6396 256.957 28.2078 256.805 27.804C256.653 27.4001 256.416 27.0338 256.11 26.73C255.443 26.1877 254.599 25.91 253.74 25.95L250.21 26Z" fill="#1E1E1C"/>
<path d="M266.62 62.89L275.3 15.72H304.17L302.17 26.36H285.87L284.51 33.48H298.88L296.88 44.12H282.55L281.06 52.25H298.14L296.24 62.89H266.62Z" fill="#1E1E1C"/>
<path d="M326.47 37.27L330.4 15.72H342.47L333.8 62.89H323L319 51L315.81 41H315.47L311.47 63H299.27L308 15.72H318.91L322.91 26.9L326.16 37.27H326.47Z" fill="#1E1E1C"/>
<path d="M361.51 26.36L354.8 62.89H342.33L349 26.36H339.31L341.31 15.72H373.17L371.27 26.36H361.51Z" fill="#1E1E1C"/>
<path d="M15.08 61.79C12.5616 61.871 10.0552 61.4106 7.73 60.44C5.88286 59.6349 4.27942 58.3591 3.08 56.74C1.91709 55.0999 1.19407 53.1891 0.98 51.19C0.716081 48.8731 0.807128 46.5295 1.25 44.24L3.49 32.24C3.72 31.02 3.97 29.83 4.27 28.65C4.57 27.47 4.91 26.3 5.32 25.13C6.40397 21.8391 8.44414 18.946 11.18 16.82C14.1636 14.6759 17.7789 13.5917 21.45 13.74C23.5296 13.7174 25.6004 14.0142 27.59 14.62C29.2756 15.1345 30.8331 16.0002 32.16 17.16C33.3734 18.2608 34.3119 19.6308 34.9 21.16C35.5282 22.8689 35.7508 24.7004 35.55 26.51L24.09 29.43V29.15C24.1939 27.8413 23.8405 26.5371 23.09 25.46C22.8163 25.1115 22.4671 24.8297 22.0687 24.6357C21.6703 24.4417 21.2331 24.3406 20.79 24.34C20.0423 24.3095 19.305 24.5237 18.69 24.95C18.1436 25.369 17.682 25.8882 17.33 26.48C16.9632 27.1033 16.6903 27.7772 16.52 28.48C16.34 29.2 16.18 29.9 16.05 30.58L13.27 45.83C13.1773 46.4227 13.1205 47.0204 13.1 47.62C13.0613 48.177 13.1538 48.7353 13.37 49.25C13.5821 49.7318 13.9295 50.1417 14.37 50.43C14.9389 50.7817 15.6024 50.9493 16.27 50.91C16.9709 50.9273 17.663 50.7508 18.27 50.4C18.8193 50.0731 19.2931 49.6334 19.66 49.11C20.0069 48.6165 20.2923 48.0826 20.51 47.52C20.6871 47.0566 20.8341 46.5823 20.95 46.1L21.42 43.72H17.59L19.28 34.64H35.14L33.65 43.86C33.4252 46.3036 32.8701 48.7055 32 51C31.1886 53.0913 29.9911 55.0113 28.47 56.66C26.9189 58.3021 25.0376 59.5972 22.95 60.46C20.4416 61.4237 17.7658 61.8759 15.08 61.79Z" fill="#3AAA35"/>
<path d="M45.84 61.39H33.58L42.25 14.22H59.6C61.3117 14.2005 63.0159 14.4502 64.65 14.96C66.0871 15.4182 67.4146 16.167 68.55 17.16C69.6667 18.1901 70.5263 19.4676 71.06 20.89C71.6753 22.5948 71.9736 24.3978 71.94 26.21C71.94 33.0767 69.0033 37.9567 63.13 40.85L66.65 61.39H54L51.7 43.49H49.1L45.84 61.39ZM52.62 24.45L51 33.26H53.58C54.2244 33.2514 54.8643 33.1503 55.48 32.96C56.1619 32.7516 56.8041 32.4305 57.38 32.01C57.9874 31.5499 58.4831 30.9585 58.83 30.28C59.2449 29.4387 59.4442 28.5074 59.41 27.57C59.4402 27.1396 59.3772 26.7078 59.2254 26.304C59.0735 25.9001 58.8363 25.5338 58.53 25.23C57.8645 24.6843 57.0195 24.4062 56.16 24.45H52.62Z" fill="#3AAA35"/>
<path d="M69 61.39L77.67 14.22H106.55L104.55 24.86H88.28L86.92 32H101.29L99.29 42.64H85L83.5 50.78H100.58L98.69 61.42L69 61.39Z" fill="#3AAA35"/>
<path d="M101.7 61.39L110.38 14.22H139.25L137.25 24.86H121L119.6 32H134L132 42.64H117.63L116.14 50.78H133.22L131.32 61.42L101.7 61.39Z" fill="#3AAA35"/>
<path d="M161.55 35.77L165.49 14.22H177.55L168.87 61.39H158L154.07 49.46L150.88 39.46H150.55L146.55 61.46H134.35L143.02 14.29H154L158 25.47L161.26 35.84L161.55 35.77Z" fill="#3AAA35"/>
<path d="M248.31 10.44L248.01 8.38H244.91L243.76 10.44H241.53L246.94 0.830002H248.75L250.48 10.44H248.31ZM247.59 5.44L247.4 3.52L246.5 5.41L245.91 6.65H247.78L247.59 5.44Z" fill="#1E1E1C"/>
<path d="M261 0.829999C261.768 0.784818 262.526 1.02324 263.13 1.5C263.393 1.73037 263.601 2.01735 263.738 2.33946C263.875 2.66157 263.937 3.01046 263.92 3.36C263.929 3.88221 263.827 4.40036 263.62 4.87999C263.44 5.30585 263.171 5.68789 262.83 6C262.483 6.30623 262.078 6.54074 261.64 6.69C261.169 6.86119 260.671 6.94588 260.17 6.94H258.17L257.48 10.44H255.41L257.28 0.829999H261ZM259 2.69L258.5 5H260.35C260.537 5.00179 260.723 4.97135 260.9 4.91C261.067 4.84926 261.222 4.76141 261.36 4.65C261.494 4.53112 261.599 4.38432 261.67 4.22C261.753 4.03804 261.794 3.83986 261.79 3.64C261.79 2.99 261.4 2.64 260.62 2.64L259 2.69Z" fill="#1E1E1C"/>
<path d="M267.55 10.44L269.41 0.830002H275.91L275.55 2.69H271.14L270.74 4.69H274.65L274.29 6.53H270.38L269.99 8.53H274.62L274.26 10.43L267.55 10.44Z" fill="#1E1E1C"/>
<path d="M284.63 10.44L285.4 6.52H282.3L281.54 10.44H279.47L281.34 0.830002H283.41L282.66 4.68H285.76L286.5 0.830002H288.56L286.7 10.44H284.63Z" fill="#1E1E1C"/>
<path d="M302.23 0.830002L300.73 8.54H301.68L300.88 12.67H299.15L299.6 10.44H293.51L293.07 12.67H291.35L292.11 8.67L293.17 8.44C293.355 8.30435 293.523 8.14651 293.67 7.97C293.834 7.77361 293.968 7.5547 294.07 7.32C294.213 6.99539 294.333 6.66126 294.43 6.32C294.55 5.92 294.68 5.42 294.84 4.81L295.84 0.809998L302.23 0.830002ZM299.8 2.74H297.23L296.67 5C296.59 5.29 296.51 5.61 296.43 5.94C296.35 6.27 296.25 6.59 296.15 6.94C296.05 7.29 295.92 7.56 295.79 7.85C295.666 8.1199 295.512 8.37487 295.33 8.61H298.67L299.8 2.74Z" fill="#1E1E1C"/>
<path d="M312.74 10.44L312.44 8.38H309.34L308.19 10.44H306L311.42 0.830002H313.23L314.96 10.44H312.74ZM312.02 5.44L311.83 3.52H311.78L310.89 5.41L310.29 6.65H312.17L312.02 5.44Z" fill="#1E1E1C"/>
<path d="M333.67 10.44L333.37 8.38H330.27L329.13 10.44H326.89L332.3 0.830002H334.11L335.84 10.44H333.67ZM332.95 5.44L332.76 3.52L331.86 5.41L331.27 6.65H333.14L332.95 5.44Z" fill="#1E1E1C"/>
<path d="M346.32 0.829999C347.074 0.772693 347.823 0.989288 348.43 1.44C348.673 1.65488 348.863 1.92257 348.986 2.22249C349.109 2.5224 349.162 2.84654 349.14 3.17C349.141 3.37871 349.118 3.58686 349.07 3.79C349.015 4.00685 348.931 4.21535 348.82 4.41C348.698 4.62628 348.539 4.81927 348.35 4.98C348.139 5.16397 347.899 5.31255 347.64 5.42V5.48C347.996 5.64432 348.28 5.9321 348.44 6.29C348.616 6.63722 348.708 7.02074 348.71 7.41C348.718 7.87013 348.608 8.32462 348.39 8.73C348.189 9.11678 347.91 9.45738 347.57 9.73C347.227 9.98057 346.845 10.1731 346.44 10.3C346.045 10.425 345.634 10.4891 345.22 10.49H340.73L342.6 0.879995L346.32 0.829999ZM343.63 6.41L343.21 8.54H345C345.225 8.54266 345.448 8.50542 345.66 8.43C345.819 8.3655 345.963 8.26927 346.083 8.14718C346.204 8.0251 346.298 7.87974 346.36 7.72C346.423 7.56758 346.457 7.40481 346.46 7.24C346.462 7.02411 346.379 6.81606 346.23 6.66C346.119 6.56484 345.99 6.49352 345.851 6.4505C345.712 6.40748 345.565 6.3937 345.42 6.41H343.63ZM344.38 2.69L343.97 4.69H345.49C345.684 4.70562 345.88 4.68273 346.065 4.62267C346.25 4.56261 346.422 4.46655 346.57 4.33999C346.679 4.23876 346.766 4.11657 346.826 3.9808C346.886 3.84503 346.918 3.69849 346.92 3.55C346.921 3.33716 346.839 3.1324 346.69 2.98C346.579 2.88889 346.452 2.82074 346.314 2.77953C346.177 2.73832 346.033 2.72488 345.89 2.74L344.38 2.69Z" fill="#1E1E1C"/>
<path d="M358.67 2.66L357.15 10.44H355.09L356.6 2.66H354L354.36 0.830002H361.58L361.22 2.66H358.67Z" fill="#1E1E1C"/>
<path d="M369.7 0.760003C370.253 0.748278 370.803 0.843347 371.32 1.04C371.758 1.20901 372.151 1.47579 372.47 1.82C372.769 2.16123 372.982 2.56937 373.09 3.01C373.19 3.50162 373.19 4.00839 373.09 4.5L372.65 6.77C372.552 7.30381 372.391 7.82411 372.17 8.32C371.993 8.76757 371.724 9.17298 371.38 9.51C371.046 9.84341 370.644 10.0994 370.2 10.26C369.682 10.4502 369.132 10.5418 368.58 10.53C367.982 10.5432 367.387 10.4379 366.83 10.22C366.387 10.0479 365.994 9.76574 365.69 9.4C365.405 9.05521 365.215 8.64134 365.14 8.2C365.045 7.72805 365.045 7.24195 365.14 6.77L365.58 4.5C365.667 4.01253 365.808 3.53625 366 3.08C366.181 2.64141 366.438 2.23846 366.76 1.89C367.095 1.53392 367.5 1.25128 367.95 1.06C368.507 0.841574 369.102 0.739481 369.7 0.760003ZM369.56 2.62C369.305 2.61214 369.052 2.66347 368.82 2.77C368.625 2.85928 368.451 2.98879 368.31 3.15C368.176 3.30899 368.069 3.4878 367.99 3.68C367.92 3.87243 367.863 4.06958 367.82 4.27L367.27 7C367.245 7.18585 367.245 7.37415 367.27 7.56C367.286 7.75354 367.353 7.93944 367.464 8.09912C367.574 8.25881 367.725 8.38669 367.9 8.47C368.162 8.58189 368.446 8.63316 368.73 8.62C368.976 8.62788 369.222 8.58358 369.45 8.49C369.643 8.41603 369.817 8.29987 369.96 8.15C370.102 7.99892 370.214 7.82251 370.29 7.63C370.375 7.42609 370.441 7.21532 370.49 7L371.04 4.21C371.08 4.01204 371.08 3.80796 371.04 3.61C371.004 3.42058 370.918 3.24437 370.79 3.1C370.654 2.95385 370.491 2.83506 370.31 2.75C370.072 2.65487 369.816 2.61059 369.56 2.62Z" fill="#1E1E1C"/>
<path d="M237.09 38.54C237.09 45.0094 235.172 51.3336 231.577 56.7127C227.983 62.0918 222.875 66.2844 216.898 68.7601C210.921 71.2358 204.344 71.8836 197.999 70.6215C191.653 69.3594 185.825 66.244 181.251 61.6695C176.676 57.0949 173.561 51.2665 172.299 44.9214C171.036 38.5763 171.684 31.9994 174.16 26.0224C176.636 20.0455 180.828 14.9368 186.207 11.3426C191.586 7.74841 197.911 5.83 204.38 5.83C213.055 5.83 221.375 9.27622 227.509 15.4105C233.644 21.5449 237.09 29.8648 237.09 38.54Z" fill="#3AAA35"/>
<path d="M185 45.32C185.731 45.5801 186.529 45.5801 187.26 45.32L186.13 43.37L185 45.32ZM187.22 41.46H189.49C189.354 40.6833 188.955 39.977 188.36 39.46L187.22 41.46ZM186.12 36.7C185.054 36.702 184.012 37.02 183.127 37.6139C182.242 38.2078 181.553 39.0509 181.146 40.0366C180.74 41.0222 180.636 42.1062 180.846 43.1513C181.055 44.1965 181.571 45.156 182.326 45.9084C183.081 46.6608 184.042 47.1723 185.088 47.3784C186.134 47.5844 187.218 47.4757 188.202 47.0659C189.186 46.6561 190.027 45.9637 190.617 45.0762C191.208 44.1887 191.522 43.146 191.52 42.08C191.519 41.3688 191.377 40.6649 191.102 40.0088C190.828 39.3527 190.426 38.7575 189.92 38.2574C189.414 37.7573 188.815 37.3622 188.156 37.0949C187.497 36.8276 186.791 36.6934 186.08 36.7H186.12ZM186.12 46.24C185.3 46.24 184.498 45.9969 183.815 45.5413C183.133 45.0857 182.601 44.4382 182.287 43.6804C181.972 42.9227 181.89 42.0888 182.049 41.284C182.208 40.4793 182.603 39.7398 183.182 39.159C183.761 38.5783 184.5 38.1822 185.304 38.021C186.109 37.8597 186.943 37.9405 187.701 38.253C188.46 38.5656 189.109 39.096 189.566 39.7771C190.023 40.4583 190.268 41.2596 190.27 42.08C190.273 42.6287 190.166 43.1725 189.957 43.6798C189.748 44.187 189.439 44.6475 189.05 45.0346C188.661 45.4217 188.199 45.7276 187.691 45.9346C187.183 46.1415 186.639 46.2453 186.09 46.24H186.12ZM182.75 42.73C182.889 43.5078 183.292 44.214 183.89 44.73L185.02 42.73H182.75ZM187.25 38.86C186.885 38.7273 186.499 38.6596 186.11 38.66C185.726 38.6704 185.345 38.7378 184.98 38.86L186.12 40.86L187.25 38.86ZM183.89 39.5C183.29 40.0144 182.887 40.7213 182.75 41.5H185L183.89 39.5ZM188.35 44.68C188.951 44.1679 189.352 43.4593 189.48 42.68H187.22L188.35 44.68ZM221.94 37.52C221.044 38.0985 220.34 38.9296 219.917 39.9082C219.494 40.8868 219.371 41.969 219.562 43.0178C219.754 44.0666 220.253 45.0349 220.995 45.8002C221.738 46.5656 222.69 47.0936 223.733 47.3175C224.775 47.5414 225.861 47.4511 226.852 47.058C227.843 46.6649 228.695 45.9867 229.301 45.1092C229.906 44.2317 230.238 43.1942 230.254 42.1282C230.27 41.0621 229.969 40.0152 229.39 39.12C229.006 38.5219 228.507 38.0057 227.922 37.6012C227.337 37.1967 226.678 36.9119 225.983 36.7632C225.288 36.6145 224.57 36.6048 223.871 36.7347C223.172 36.8645 222.505 37.1315 221.91 37.52H221.94ZM227.11 45.52C226.42 45.963 225.614 46.1917 224.794 46.1771C223.974 46.1626 223.177 45.9055 222.503 45.4383C221.829 44.9711 221.309 44.3147 221.008 43.552C220.707 42.7893 220.638 41.9545 220.811 41.1529C220.984 40.3514 221.39 39.619 221.979 39.0482C222.568 38.4774 223.313 38.0938 224.119 37.9459C224.926 37.7979 225.758 37.8922 226.511 38.2169C227.264 38.5415 227.904 39.082 228.35 39.77C228.649 40.2311 228.854 40.7471 228.952 41.2879C229.05 41.8288 229.039 42.3837 228.921 42.9205C228.803 43.4573 228.58 43.9653 228.263 44.415C227.947 44.8647 227.545 45.2471 227.08 45.54L227.11 45.52ZM226.11 41.96L228.11 42.96C228.334 42.213 228.295 41.4118 228 40.69L226.11 41.96ZM235.11 42.06C234.9 40.01 234.11 36.79 231.51 35.27C229.72 34.27 225.18 32.8 218.75 31.95C218.75 31.95 211.65 23.61 201.36 23.62C190.76 23.62 184.9 29.15 184.9 29.15L178.31 30.15C178.31 31.04 173.31 43.04 180.11 43.87C180.11 43.87 180.11 42.73 180.11 42.11C180.11 40.5187 180.742 38.9926 181.867 37.8674C182.993 36.7421 184.519 36.11 186.11 36.11C187.701 36.11 189.227 36.7421 190.353 37.8674C191.478 38.9926 192.11 40.5187 192.11 42.11C192.11 42.77 192.11 43.98 192.11 43.98H218.94C218.94 43.98 218.94 42.77 218.94 42.12C218.93 40.756 219.384 39.4292 220.229 38.3582C221.074 37.2873 222.258 36.5361 223.587 36.2287C224.916 35.9212 226.31 36.0757 227.54 36.6667C228.769 37.2578 229.76 38.25 230.35 39.48C230.744 40.3007 230.949 41.1995 230.95 42.11C230.95 42.76 230.95 43.96 230.95 43.96H235.17V43.57C235.17 43.0723 235.143 42.5749 235.09 42.08L235.11 42.06ZM189.11 30.74C189.11 30.74 190.66 25.38 200.61 25.17L201.49 31.41C194.09 31.05 189.06 30.76 189.06 30.76L189.11 30.74ZM203.11 31.5L202.23 25.19C210.8 25.67 216.4 32.41 216.4 32.41C213.49 32.13 208.27 31.8 203 31.52L203.11 31.5ZM225.71 45.35C226.088 45.266 226.447 45.1135 226.77 44.9C227.093 44.6912 227.378 44.4271 227.61 44.12L225.61 43.12L225.71 45.35ZM224.11 38.7C223.734 38.7903 223.376 38.9423 223.05 39.15C222.728 39.3643 222.441 39.6275 222.2 39.93L224.2 40.93L224.11 38.7ZM221.63 41.06C221.407 41.8037 221.446 42.6015 221.74 43.32L223.65 42.09L221.63 41.06ZM225.37 38.64L225.49 40.9L227.4 39.67C226.838 39.0944 226.091 38.7365 225.29 38.66L225.37 38.64ZM222.43 44.38C222.966 44.928 223.67 45.2802 224.43 45.38L224.32 43.11L222.43 44.38Z" fill="white"/>
<path d="M34.59 55.87C38.73 55.5233 42.8733 55.19 47.02 54.87L47.73 50.97C43.6033 51.09 39.4933 51.24 35.4 51.42L34.59 55.87ZM33.59 61.39H45.84L46.46 58.02C42.3 58.4 38.1333 58.82 33.96 59.28L33.59 61.39ZM36.11 47.67C40.15 47.63 44.2333 47.63 48.36 47.67L48.83 45.06C44.73 44.92 40.6767 44.7933 36.67 44.68L36.11 47.67ZM53.54 57.38L54.05 61.38H56.24C59.67 60.97 63.08 60.59 66.46 60.22L65.8 56.38C61.71 56.7 57.62 57 53.53 57.38H53.54ZM63.95 45.58C59.91 45.42 55.91 45.2667 51.95 45.12L52.27 47.62C56.27 47.62 60.27 47.6467 64.27 47.7L63.95 45.58ZM64.81 50.58C60.7433 50.6467 56.7067 50.7333 52.7 50.84L53.17 54.48C57.2167 54.22 61.28 53.9833 65.36 53.77L64.81 50.58ZM21 46.14C20.8841 46.6223 20.7371 47.0966 20.56 47.56C20.5 47.7 20.43 47.85 20.36 47.99C24.54 47.8633 28.7533 47.77 33 47.71C33.2526 46.6684 33.4463 45.6134 33.58 44.55C29.4467 44.45 25.3733 44.3767 21.36 44.33L21 46.14ZM84.28 46.4L71.9 45.9L71.55 47.79C75.6567 47.83 79.8067 47.8833 84 47.95L84.28 46.4ZM116.8 47.23L104.36 47L104.13 48.23C108.283 48.27 112.437 48.3 116.59 48.32L116.8 47.23ZM3.1 56.74C3.72424 57.6022 4.4762 58.3643 5.33 59C13.11 57.9933 20.8667 57.1267 28.6 56.4C29.8719 54.9827 30.9053 53.3684 31.66 51.62C21.5 52.11 11.48 52.8 1.58 53.76C1.92111 54.8256 2.42726 55.8312 3.08 56.74H3.1ZM13.17 47.66C13.1905 47.0605 13.2473 46.4627 13.34 45.87L13.63 44.28C9.44333 44.28 5.31667 44.3167 1.25 44.39C0.980383 45.8812 0.853143 47.3947 0.87 48.91C4.94333 48.6367 9.05333 48.4167 13.2 48.25C13.1679 48.055 13.1511 47.8577 13.15 47.66H13.17ZM15.1 61.79C17.5144 61.8295 19.9172 61.4471 22.2 60.66C19.44 61.0133 16.68 61.3767 13.92 61.75C14.29 61.77 14.67 61.79 15.08 61.79H15.1ZM69.32 59.92C79.58 58.83 89.62 57.92 99.44 57.04L99.95 54.22C89.95 54.77 79.95 55.37 70.02 56.08L69.32 59.92ZM153.58 47.76L153.75 48.3C159.71 48.26 165.573 48.1967 171.34 48.11L171.4 47.78C165.547 47.8067 159.6 47.8 153.56 47.76H153.58ZM154.5 50.6C160.08 50.41 165.6 50.21 170.99 49.99L171.13 49.24C165.58 49.38 159.91 49.49 154.13 49.59L154.5 50.6ZM155.32 53.1L170.61 52.1L170.81 51.02C165.59 51.28 160.26 51.53 154.87 51.78L155.32 53.1ZM173 47.77C173 47.87 173.06 47.98 173.09 48.08C183.19 47.9 192.92 47.64 202.09 47.24C192.89 47.55 183.13 47.71 173 47.77ZM174.05 50.77C174.18 51.1 174.33 51.42 174.47 51.77C192.81 50.45 209.73 49.03 224.09 47.29C209.58 48.74 192.48 49.84 174.06 50.8L174.05 50.77ZM173.45 49.15L173.7 49.85C191.05 49.13 207.16 48.23 220.94 46.99C207 48.06 190.84 48.73 173.46 49.18L173.45 49.15ZM136.77 48.31C140.85 48.31 144.92 48.31 148.94 48.31L149.06 47.72C145.06 47.68 141.007 47.6333 136.9 47.58L136.77 48.31ZM103.04 54.02L102.54 56.75C106.227 56.43 109.893 56.1233 113.54 55.83L132.54 54.56L132.88 52.66L109.39 53.66L103.04 54.02ZM116.25 50.02L103.75 50.12L103.39 52.12L105.17 52.06L133.11 51.24L133.21 50.71H116.14L116.25 50.02ZM83.53 50.3L71 50.49L70.45 53.49C80.29 53.01 90.21 52.62 100.24 52.26L100.51 50.73H83.46L83.53 50.3ZM136.24 51.13L148.49 50.75L148.7 49.63C144.7 49.7 140.58 49.75 136.49 49.8L136.24 51.13ZM135.65 54.34L147.99 53.53L148.27 51.97L135.99 52.51L135.65 54.34Z" fill="white"/>
</svg>
